<mxfile host="65bd71144e">
    <diagram id="Lx8uTofC9qlo_GqfUovX" name="Page-1">
        <mxGraphModel dx="-1286" dy="-1493" grid="1" gridSize="10" guides="1" tooltips="1" connect="1" arrows="1" fold="1" page="1" pageScale="1" pageWidth="850" pageHeight="1100" math="0" shadow="0">
            <root>
                <mxCell id="0"/>
                <mxCell id="1" parent="0"/>
                <mxCell id="572" value="&lt;font style=&quot;font-size: 24px;&quot;&gt;4, &quot;four&lt;/font&gt;&lt;span style=&quot;color: rgb(63, 63, 63); font-size: 24px; background-color: transparent;&quot;&gt;&quot;&lt;/span&gt;" style="rounded=0;whiteSpace=wrap;html=1;fontFamily=Fira Code;fillColor=#f8cecc;strokeColor=#b85450;" parent="1" vertex="1">
                    <mxGeometry x="2410" y="5300" width="160" height="40" as="geometry"/>
                </mxCell>
                <mxCell id="573" value="_M_before_begin" style="rounded=0;whiteSpace=wrap;html=1;fontSize=24;fontFamily=Fira Code;fillColor=#fff2cc;strokeColor=#d6b656;" parent="1" vertex="1">
                    <mxGeometry x="2090" y="3380" width="240" height="40" as="geometry"/>
                </mxCell>
                <mxCell id="574" value="&lt;font style=&quot;font-size: 24px;&quot;&gt;nullptr&lt;/font&gt;" style="rounded=0;whiteSpace=wrap;html=1;fontFamily=Fira Code;fillColor=#f5f5f5;strokeColor=#666666;fontColor=#333333;" parent="1" vertex="1">
                    <mxGeometry x="2410" y="3380" width="120" height="40" as="geometry"/>
                </mxCell>
                <mxCell id="575" value="_M_before_begin" style="rounded=0;whiteSpace=wrap;html=1;fontSize=24;fontFamily=Fira Code;fillColor=#fff2cc;strokeColor=#d6b656;" parent="1" vertex="1">
                    <mxGeometry x="2090" y="4540" width="240" height="40" as="geometry"/>
                </mxCell>
                <mxCell id="576" value="&lt;font style=&quot;font-size: 24px;&quot;&gt;1, &quot;one&quot;&lt;/font&gt;" style="rounded=0;whiteSpace=wrap;html=1;fontFamily=Fira Code;fillColor=#f8cecc;strokeColor=#b85450;" parent="1" vertex="1">
                    <mxGeometry x="2410" y="4540" width="160" height="40" as="geometry"/>
                </mxCell>
                <mxCell id="577" value="&lt;span style=&quot;color: rgb(0, 0, 0); font-size: 24px;&quot;&gt;idx: 11&lt;/span&gt;" style="rounded=0;whiteSpace=wrap;html=1;fontFamily=Fira Code;fillColor=#dae8fc;strokeColor=#6c8ebf;" parent="1" vertex="1">
                    <mxGeometry x="1930" y="3500" width="120" height="40" as="geometry"/>
                </mxCell>
                <mxCell id="578" value="&lt;span style=&quot;color: rgb(0, 0, 0); font-size: 24px;&quot;&gt;idx: 10&lt;/span&gt;" style="rounded=0;whiteSpace=wrap;html=1;fontFamily=Fira Code;fillColor=#dae8fc;strokeColor=#6c8ebf;" parent="1" vertex="1">
                    <mxGeometry x="1930" y="3460" width="120" height="40" as="geometry"/>
                </mxCell>
                <mxCell id="579" value="&lt;span style=&quot;color: rgb(0, 0, 0); font-size: 24px;&quot;&gt;idx: 12&lt;/span&gt;" style="rounded=0;whiteSpace=wrap;html=1;fontFamily=Fira Code;fillColor=#dae8fc;strokeColor=#6c8ebf;" parent="1" vertex="1">
                    <mxGeometry x="1930" y="3540" width="120" height="40" as="geometry"/>
                </mxCell>
                <mxCell id="580" value="&lt;span style=&quot;color: rgb(0, 0, 0); font-size: 24px;&quot;&gt;idx: 8&lt;/span&gt;" style="rounded=0;whiteSpace=wrap;html=1;fontFamily=Fira Code;fillColor=#dae8fc;strokeColor=#6c8ebf;" parent="1" vertex="1">
                    <mxGeometry x="1930" y="3380" width="120" height="40" as="geometry"/>
                </mxCell>
                <mxCell id="581" value="&lt;span style=&quot;color: rgb(0, 0, 0); font-size: 24px;&quot;&gt;idx: 7&lt;/span&gt;" style="rounded=0;whiteSpace=wrap;html=1;fontFamily=Fira Code;fillColor=#dae8fc;strokeColor=#6c8ebf;" parent="1" vertex="1">
                    <mxGeometry x="1930" y="3340" width="120" height="40" as="geometry"/>
                </mxCell>
                <mxCell id="582" value="&lt;span style=&quot;color: rgb(0, 0, 0); font-size: 24px;&quot;&gt;idx: 9&lt;/span&gt;" style="rounded=0;whiteSpace=wrap;html=1;fontFamily=Fira Code;fillColor=#dae8fc;strokeColor=#6c8ebf;" parent="1" vertex="1">
                    <mxGeometry x="1930" y="3420" width="120" height="40" as="geometry"/>
                </mxCell>
                <mxCell id="583" value="&lt;span style=&quot;color: rgb(0, 0, 0); font-size: 24px;&quot;&gt;idx: 5&lt;/span&gt;" style="rounded=0;whiteSpace=wrap;html=1;fontFamily=Fira Code;fillColor=#dae8fc;strokeColor=#6c8ebf;" parent="1" vertex="1">
                    <mxGeometry x="1930" y="3260" width="120" height="40" as="geometry"/>
                </mxCell>
                <mxCell id="584" value="&lt;span style=&quot;color: rgb(0, 0, 0); font-size: 24px;&quot;&gt;idx: 4&lt;/span&gt;" style="rounded=0;whiteSpace=wrap;html=1;fontFamily=Fira Code;fillColor=#dae8fc;strokeColor=#6c8ebf;" parent="1" vertex="1">
                    <mxGeometry x="1930" y="3220" width="120" height="40" as="geometry"/>
                </mxCell>
                <mxCell id="585" value="&lt;span style=&quot;color: rgb(0, 0, 0); font-size: 24px;&quot;&gt;idx: 6&lt;/span&gt;" style="rounded=0;whiteSpace=wrap;html=1;fontFamily=Fira Code;fillColor=#dae8fc;strokeColor=#6c8ebf;" parent="1" vertex="1">
                    <mxGeometry x="1930" y="3300" width="120" height="40" as="geometry"/>
                </mxCell>
                <mxCell id="586" value="&lt;span style=&quot;color: rgb(0, 0, 0); font-size: 24px;&quot;&gt;idx: 2&lt;/span&gt;" style="rounded=0;whiteSpace=wrap;html=1;fontFamily=Fira Code;fillColor=#dae8fc;strokeColor=#6c8ebf;" parent="1" vertex="1">
                    <mxGeometry x="1930" y="3140" width="120" height="40" as="geometry"/>
                </mxCell>
                <mxCell id="587" value="&lt;span style=&quot;color: rgb(0, 0, 0); font-size: 24px;&quot;&gt;idx: 1&lt;/span&gt;" style="rounded=0;whiteSpace=wrap;html=1;fontFamily=Fira Code;fillColor=#dae8fc;strokeColor=#6c8ebf;" parent="1" vertex="1">
                    <mxGeometry x="1930" y="3100" width="120" height="40" as="geometry"/>
                </mxCell>
                <mxCell id="588" value="&lt;span style=&quot;color: rgb(0, 0, 0); font-size: 24px;&quot;&gt;idx: 3&lt;/span&gt;" style="rounded=0;whiteSpace=wrap;html=1;fontFamily=Fira Code;fillColor=#dae8fc;strokeColor=#6c8ebf;" parent="1" vertex="1">
                    <mxGeometry x="1930" y="3180" width="120" height="40" as="geometry"/>
                </mxCell>
                <mxCell id="589" value="&lt;span style=&quot;color: rgb(0, 0, 0); font-size: 24px;&quot;&gt;idx: 0&lt;/span&gt;" style="rounded=0;whiteSpace=wrap;html=1;fontFamily=Fira Code;fillColor=#dae8fc;strokeColor=#6c8ebf;" parent="1" vertex="1">
                    <mxGeometry x="1930" y="3060" width="120" height="40" as="geometry"/>
                </mxCell>
                <mxCell id="590" value="_M_buckets" style="text;html=1;align=center;verticalAlign=middle;whiteSpace=wrap;rounded=0;fontSize=36;fontFamily=Fira Code;" parent="1" vertex="1">
                    <mxGeometry x="1740" y="3030" width="160" height="30" as="geometry"/>
                </mxCell>
                <mxCell id="591" value="&lt;span style=&quot;color: rgb(0, 0, 0); font-size: 24px;&quot;&gt;idx: 11&lt;/span&gt;" style="rounded=0;whiteSpace=wrap;html=1;fontFamily=Fira Code;fillColor=#dae8fc;strokeColor=#6c8ebf;" parent="1" vertex="1">
                    <mxGeometry x="1930" y="4940" width="120" height="40" as="geometry"/>
                </mxCell>
                <mxCell id="592" value="&lt;span style=&quot;color: rgb(0, 0, 0); font-size: 24px;&quot;&gt;idx: 10&lt;/span&gt;" style="rounded=0;whiteSpace=wrap;html=1;fontFamily=Fira Code;fillColor=#dae8fc;strokeColor=#6c8ebf;" parent="1" vertex="1">
                    <mxGeometry x="1930" y="4900" width="120" height="40" as="geometry"/>
                </mxCell>
                <mxCell id="593" value="&lt;span style=&quot;color: rgb(0, 0, 0); font-size: 24px;&quot;&gt;idx: 12&lt;/span&gt;" style="rounded=0;whiteSpace=wrap;html=1;fontFamily=Fira Code;fillColor=#dae8fc;strokeColor=#6c8ebf;" parent="1" vertex="1">
                    <mxGeometry x="1930" y="4980" width="120" height="40" as="geometry"/>
                </mxCell>
                <mxCell id="594" value="&lt;span style=&quot;color: rgb(0, 0, 0); font-size: 24px;&quot;&gt;idx: 8&lt;/span&gt;" style="rounded=0;whiteSpace=wrap;html=1;fontFamily=Fira Code;fillColor=#dae8fc;strokeColor=#6c8ebf;" parent="1" vertex="1">
                    <mxGeometry x="1930" y="4820" width="120" height="40" as="geometry"/>
                </mxCell>
                <mxCell id="595" value="&lt;span style=&quot;color: rgb(0, 0, 0); font-size: 24px;&quot;&gt;idx: 7&lt;/span&gt;" style="rounded=0;whiteSpace=wrap;html=1;fontFamily=Fira Code;fillColor=#dae8fc;strokeColor=#6c8ebf;" parent="1" vertex="1">
                    <mxGeometry x="1930" y="4780" width="120" height="40" as="geometry"/>
                </mxCell>
                <mxCell id="596" value="&lt;span style=&quot;color: rgb(0, 0, 0); font-size: 24px;&quot;&gt;idx: 9&lt;/span&gt;" style="rounded=0;whiteSpace=wrap;html=1;fontFamily=Fira Code;fillColor=#dae8fc;strokeColor=#6c8ebf;" parent="1" vertex="1">
                    <mxGeometry x="1930" y="4860" width="120" height="40" as="geometry"/>
                </mxCell>
                <mxCell id="597" value="&lt;span style=&quot;color: rgb(0, 0, 0); font-size: 24px;&quot;&gt;idx: 5&lt;/span&gt;" style="rounded=0;whiteSpace=wrap;html=1;fontFamily=Fira Code;fillColor=#dae8fc;strokeColor=#6c8ebf;" parent="1" vertex="1">
                    <mxGeometry x="1930" y="4700" width="120" height="40" as="geometry"/>
                </mxCell>
                <mxCell id="598" value="&lt;span style=&quot;color: rgb(0, 0, 0); font-size: 24px;&quot;&gt;idx: 4&lt;/span&gt;" style="rounded=0;whiteSpace=wrap;html=1;fontFamily=Fira Code;fillColor=#dae8fc;strokeColor=#6c8ebf;" parent="1" vertex="1">
                    <mxGeometry x="1930" y="4660" width="120" height="40" as="geometry"/>
                </mxCell>
                <mxCell id="599" value="&lt;span style=&quot;color: rgb(0, 0, 0); font-size: 24px;&quot;&gt;idx: 6&lt;/span&gt;" style="rounded=0;whiteSpace=wrap;html=1;fontFamily=Fira Code;fillColor=#dae8fc;strokeColor=#6c8ebf;" parent="1" vertex="1">
                    <mxGeometry x="1930" y="4740" width="120" height="40" as="geometry"/>
                </mxCell>
                <mxCell id="600" value="&lt;span style=&quot;color: rgb(0, 0, 0); font-size: 24px;&quot;&gt;idx: 2&lt;/span&gt;" style="rounded=0;whiteSpace=wrap;html=1;fontFamily=Fira Code;fillColor=#dae8fc;strokeColor=#6c8ebf;" parent="1" vertex="1">
                    <mxGeometry x="1930" y="4580" width="120" height="40" as="geometry"/>
                </mxCell>
                <mxCell id="601" style="edgeStyle=none;html=1;entryX=0;entryY=0.5;entryDx=0;entryDy=0;" parent="1" source="602" target="575" edge="1">
                    <mxGeometry relative="1" as="geometry"/>
                </mxCell>
                <mxCell id="602" value="&lt;span style=&quot;color: rgb(0, 0, 0); font-size: 24px;&quot;&gt;idx: 1&lt;/span&gt;" style="rounded=0;whiteSpace=wrap;html=1;fontFamily=Fira Code;fillColor=#dae8fc;strokeColor=#6c8ebf;" parent="1" vertex="1">
                    <mxGeometry x="1930" y="4540" width="120" height="40" as="geometry"/>
                </mxCell>
                <mxCell id="603" value="&lt;span style=&quot;color: rgb(0, 0, 0); font-size: 24px;&quot;&gt;idx: 3&lt;/span&gt;" style="rounded=0;whiteSpace=wrap;html=1;fontFamily=Fira Code;fillColor=#dae8fc;strokeColor=#6c8ebf;" parent="1" vertex="1">
                    <mxGeometry x="1930" y="4620" width="120" height="40" as="geometry"/>
                </mxCell>
                <mxCell id="604" value="&lt;span style=&quot;color: rgb(0, 0, 0); font-size: 24px;&quot;&gt;idx: 0&lt;/span&gt;" style="rounded=0;whiteSpace=wrap;html=1;fontFamily=Fira Code;fillColor=#dae8fc;strokeColor=#6c8ebf;" parent="1" vertex="1">
                    <mxGeometry x="1930" y="4500" width="120" height="40" as="geometry"/>
                </mxCell>
                <mxCell id="605" value="_M_buckets" style="text;html=1;align=center;verticalAlign=middle;whiteSpace=wrap;rounded=0;fontSize=36;fontFamily=Fira Code;" parent="1" vertex="1">
                    <mxGeometry x="1740" y="4470" width="160" height="30" as="geometry"/>
                </mxCell>
                <mxCell id="606" value="_M_before_begin" style="rounded=0;whiteSpace=wrap;html=1;fontSize=24;fontFamily=Fira Code;fillColor=#fff2cc;strokeColor=#d6b656;" parent="1" vertex="1">
                    <mxGeometry x="2090" y="5300" width="240" height="40" as="geometry"/>
                </mxCell>
                <mxCell id="607" value="&lt;font style=&quot;font-size: 24px;&quot;&gt;1, &quot;one&quot;&lt;/font&gt;" style="rounded=0;whiteSpace=wrap;html=1;fontFamily=Fira Code;fillColor=#d5e8d4;strokeColor=#82b366;" parent="1" vertex="1">
                    <mxGeometry x="2650" y="5300" width="160" height="40" as="geometry"/>
                </mxCell>
                <mxCell id="608" value="&lt;span style=&quot;color: rgb(0, 0, 0); font-size: 24px;&quot;&gt;idx: 11&lt;/span&gt;" style="rounded=0;whiteSpace=wrap;html=1;fontFamily=Fira Code;fillColor=#dae8fc;strokeColor=#6c8ebf;" parent="1" vertex="1">
                    <mxGeometry x="1930" y="5700" width="120" height="40" as="geometry"/>
                </mxCell>
                <mxCell id="609" value="&lt;span style=&quot;color: rgb(0, 0, 0); font-size: 24px;&quot;&gt;idx: 10&lt;/span&gt;" style="rounded=0;whiteSpace=wrap;html=1;fontFamily=Fira Code;fillColor=#dae8fc;strokeColor=#6c8ebf;" parent="1" vertex="1">
                    <mxGeometry x="1930" y="5660" width="120" height="40" as="geometry"/>
                </mxCell>
                <mxCell id="610" value="&lt;span style=&quot;color: rgb(0, 0, 0); font-size: 24px;&quot;&gt;idx: 12&lt;/span&gt;" style="rounded=0;whiteSpace=wrap;html=1;fontFamily=Fira Code;fillColor=#dae8fc;strokeColor=#6c8ebf;" parent="1" vertex="1">
                    <mxGeometry x="1930" y="5740" width="120" height="40" as="geometry"/>
                </mxCell>
                <mxCell id="611" value="&lt;span style=&quot;color: rgb(0, 0, 0); font-size: 24px;&quot;&gt;idx: 8&lt;/span&gt;" style="rounded=0;whiteSpace=wrap;html=1;fontFamily=Fira Code;fillColor=#dae8fc;strokeColor=#6c8ebf;" parent="1" vertex="1">
                    <mxGeometry x="1930" y="5580" width="120" height="40" as="geometry"/>
                </mxCell>
                <mxCell id="612" value="&lt;span style=&quot;color: rgb(0, 0, 0); font-size: 24px;&quot;&gt;idx: 7&lt;/span&gt;" style="rounded=0;whiteSpace=wrap;html=1;fontFamily=Fira Code;fillColor=#dae8fc;strokeColor=#6c8ebf;" parent="1" vertex="1">
                    <mxGeometry x="1930" y="5540" width="120" height="40" as="geometry"/>
                </mxCell>
                <mxCell id="613" value="&lt;span style=&quot;color: rgb(0, 0, 0); font-size: 24px;&quot;&gt;idx: 9&lt;/span&gt;" style="rounded=0;whiteSpace=wrap;html=1;fontFamily=Fira Code;fillColor=#dae8fc;strokeColor=#6c8ebf;" parent="1" vertex="1">
                    <mxGeometry x="1930" y="5620" width="120" height="40" as="geometry"/>
                </mxCell>
                <mxCell id="614" value="&lt;span style=&quot;color: rgb(0, 0, 0); font-size: 24px;&quot;&gt;idx: 5&lt;/span&gt;" style="rounded=0;whiteSpace=wrap;html=1;fontFamily=Fira Code;fillColor=#dae8fc;strokeColor=#6c8ebf;" parent="1" vertex="1">
                    <mxGeometry x="1930" y="5460" width="120" height="40" as="geometry"/>
                </mxCell>
                <mxCell id="615" value="&lt;span style=&quot;color: rgb(0, 0, 0); font-size: 24px;&quot;&gt;idx: 4&lt;/span&gt;" style="rounded=0;whiteSpace=wrap;html=1;fontFamily=Fira Code;fillColor=#dae8fc;strokeColor=#6c8ebf;" parent="1" vertex="1">
                    <mxGeometry x="1930" y="5420" width="120" height="40" as="geometry"/>
                </mxCell>
                <mxCell id="616" value="&lt;span style=&quot;color: rgb(0, 0, 0); font-size: 24px;&quot;&gt;idx: 6&lt;/span&gt;" style="rounded=0;whiteSpace=wrap;html=1;fontFamily=Fira Code;fillColor=#dae8fc;strokeColor=#6c8ebf;" parent="1" vertex="1">
                    <mxGeometry x="1930" y="5500" width="120" height="40" as="geometry"/>
                </mxCell>
                <mxCell id="617" value="&lt;span style=&quot;color: rgb(0, 0, 0); font-size: 24px;&quot;&gt;idx: 2&lt;/span&gt;" style="rounded=0;whiteSpace=wrap;html=1;fontFamily=Fira Code;fillColor=#dae8fc;strokeColor=#6c8ebf;" parent="1" vertex="1">
                    <mxGeometry x="1930" y="5340" width="120" height="40" as="geometry"/>
                </mxCell>
                <mxCell id="618" style="edgeStyle=none;html=1;entryX=0;entryY=0.5;entryDx=0;entryDy=0;exitX=1;exitY=0.5;exitDx=0;exitDy=0;" parent="1" source="619" target="606" edge="1">
                    <mxGeometry relative="1" as="geometry"/>
                </mxCell>
                <mxCell id="619" value="&lt;span style=&quot;color: rgb(0, 0, 0); font-size: 24px;&quot;&gt;idx: 1&lt;/span&gt;" style="rounded=0;whiteSpace=wrap;html=1;fontFamily=Fira Code;fillColor=#dae8fc;strokeColor=#6c8ebf;" parent="1" vertex="1">
                    <mxGeometry x="1930" y="5300" width="120" height="40" as="geometry"/>
                </mxCell>
                <mxCell id="620" value="&lt;span style=&quot;color: rgb(0, 0, 0); font-size: 24px;&quot;&gt;idx: 3&lt;/span&gt;" style="rounded=0;whiteSpace=wrap;html=1;fontFamily=Fira Code;fillColor=#dae8fc;strokeColor=#6c8ebf;" parent="1" vertex="1">
                    <mxGeometry x="1930" y="5380" width="120" height="40" as="geometry"/>
                </mxCell>
                <mxCell id="621" value="&lt;span style=&quot;color: rgb(0, 0, 0); font-size: 24px;&quot;&gt;idx: 0&lt;/span&gt;" style="rounded=0;whiteSpace=wrap;html=1;fontFamily=Fira Code;fillColor=#dae8fc;strokeColor=#6c8ebf;" parent="1" vertex="1">
                    <mxGeometry x="1930" y="5260" width="120" height="40" as="geometry"/>
                </mxCell>
                <mxCell id="622" value="_M_buckets" style="text;html=1;align=center;verticalAlign=middle;whiteSpace=wrap;rounded=0;fontSize=36;fontFamily=Fira Code;" parent="1" vertex="1">
                    <mxGeometry x="1740" y="5230" width="160" height="30" as="geometry"/>
                </mxCell>
                <mxCell id="623" value="&lt;font style=&quot;font-size: 24px;&quot;&gt;nullptr&lt;/font&gt;" style="rounded=0;whiteSpace=wrap;html=1;fontFamily=Fira Code;fillColor=#f5f5f5;fontColor=#333333;strokeColor=#666666;" parent="1" vertex="1">
                    <mxGeometry x="2650" y="4540" width="120" height="40" as="geometry"/>
                </mxCell>
                <mxCell id="624" value="&lt;font style=&quot;font-size: 24px;&quot;&gt;nullptr&lt;/font&gt;" style="rounded=0;whiteSpace=wrap;html=1;fontFamily=Fira Code;fillColor=#f5f5f5;fontColor=#333333;strokeColor=#666666;" parent="1" vertex="1">
                    <mxGeometry x="2890" y="5300" width="120" height="40" as="geometry"/>
                </mxCell>
                <mxCell id="625" value="__node" style="rounded=0;whiteSpace=wrap;html=1;fillColor=#f8cecc;strokeColor=#b85450;fontSize=24;fontFamily=Fira Code;" parent="1" vertex="1">
                    <mxGeometry x="2410" y="5260" width="200" height="40" as="geometry"/>
                </mxCell>
                <mxCell id="626" value="__node" style="rounded=0;whiteSpace=wrap;html=1;fillColor=#f8cecc;strokeColor=#b85450;fontSize=24;fontFamily=Fira Code;" parent="1" vertex="1">
                    <mxGeometry x="2410" y="4500" width="200" height="40" as="geometry"/>
                </mxCell>
                <mxCell id="627" value="_M_before_begin" style="rounded=0;whiteSpace=wrap;html=1;fontSize=24;fontFamily=Fira Code;fillColor=#fff2cc;strokeColor=#d6b656;" parent="1" vertex="1">
                    <mxGeometry x="2090" y="3980" width="240" height="40" as="geometry"/>
                </mxCell>
                <mxCell id="628" value="&lt;font style=&quot;font-size: 24px;&quot;&gt;1, &quot;one&quot;&lt;/font&gt;" style="rounded=0;whiteSpace=wrap;html=1;fontFamily=Fira Code;fillColor=#f8cecc;strokeColor=#b85450;" parent="1" vertex="1">
                    <mxGeometry x="2410" y="3980" width="160" height="40" as="geometry"/>
                </mxCell>
                <mxCell id="629" value="&lt;span style=&quot;color: rgb(0, 0, 0); font-size: 24px;&quot;&gt;idx: 11&lt;/span&gt;" style="rounded=0;whiteSpace=wrap;html=1;fontFamily=Fira Code;fillColor=#dae8fc;strokeColor=#6c8ebf;" parent="1" vertex="1">
                    <mxGeometry x="1930" y="4220" width="120" height="40" as="geometry"/>
                </mxCell>
                <mxCell id="630" value="&lt;span style=&quot;color: rgb(0, 0, 0); font-size: 24px;&quot;&gt;idx: 10&lt;/span&gt;" style="rounded=0;whiteSpace=wrap;html=1;fontFamily=Fira Code;fillColor=#dae8fc;strokeColor=#6c8ebf;" parent="1" vertex="1">
                    <mxGeometry x="1930" y="4180" width="120" height="40" as="geometry"/>
                </mxCell>
                <mxCell id="631" value="&lt;span style=&quot;color: rgb(0, 0, 0); font-size: 24px;&quot;&gt;idx: 12&lt;/span&gt;" style="rounded=0;whiteSpace=wrap;html=1;fontFamily=Fira Code;fillColor=#dae8fc;strokeColor=#6c8ebf;" parent="1" vertex="1">
                    <mxGeometry x="1930" y="4260" width="120" height="40" as="geometry"/>
                </mxCell>
                <mxCell id="632" value="&lt;span style=&quot;color: rgb(0, 0, 0); font-size: 24px;&quot;&gt;idx: 8&lt;/span&gt;" style="rounded=0;whiteSpace=wrap;html=1;fontFamily=Fira Code;fillColor=#dae8fc;strokeColor=#6c8ebf;" parent="1" vertex="1">
                    <mxGeometry x="1930" y="4100" width="120" height="40" as="geometry"/>
                </mxCell>
                <mxCell id="633" value="&lt;span style=&quot;color: rgb(0, 0, 0); font-size: 24px;&quot;&gt;idx: 7&lt;/span&gt;" style="rounded=0;whiteSpace=wrap;html=1;fontFamily=Fira Code;fillColor=#dae8fc;strokeColor=#6c8ebf;" parent="1" vertex="1">
                    <mxGeometry x="1930" y="4060" width="120" height="40" as="geometry"/>
                </mxCell>
                <mxCell id="634" value="&lt;span style=&quot;color: rgb(0, 0, 0); font-size: 24px;&quot;&gt;idx: 9&lt;/span&gt;" style="rounded=0;whiteSpace=wrap;html=1;fontFamily=Fira Code;fillColor=#dae8fc;strokeColor=#6c8ebf;" parent="1" vertex="1">
                    <mxGeometry x="1930" y="4140" width="120" height="40" as="geometry"/>
                </mxCell>
                <mxCell id="635" value="&lt;span style=&quot;color: rgb(0, 0, 0); font-size: 24px;&quot;&gt;idx: 5&lt;/span&gt;" style="rounded=0;whiteSpace=wrap;html=1;fontFamily=Fira Code;fillColor=#dae8fc;strokeColor=#6c8ebf;" parent="1" vertex="1">
                    <mxGeometry x="1930" y="3980" width="120" height="40" as="geometry"/>
                </mxCell>
                <mxCell id="636" value="&lt;span style=&quot;color: rgb(0, 0, 0); font-size: 24px;&quot;&gt;idx: 4&lt;/span&gt;" style="rounded=0;whiteSpace=wrap;html=1;fontFamily=Fira Code;fillColor=#dae8fc;strokeColor=#6c8ebf;" parent="1" vertex="1">
                    <mxGeometry x="1930" y="3940" width="120" height="40" as="geometry"/>
                </mxCell>
                <mxCell id="637" value="&lt;span style=&quot;color: rgb(0, 0, 0); font-size: 24px;&quot;&gt;idx: 6&lt;/span&gt;" style="rounded=0;whiteSpace=wrap;html=1;fontFamily=Fira Code;fillColor=#dae8fc;strokeColor=#6c8ebf;" parent="1" vertex="1">
                    <mxGeometry x="1930" y="4020" width="120" height="40" as="geometry"/>
                </mxCell>
                <mxCell id="638" value="&lt;span style=&quot;color: rgb(0, 0, 0); font-size: 24px;&quot;&gt;idx: 2&lt;/span&gt;" style="rounded=0;whiteSpace=wrap;html=1;fontFamily=Fira Code;fillColor=#dae8fc;strokeColor=#6c8ebf;" parent="1" vertex="1">
                    <mxGeometry x="1930" y="3860" width="120" height="40" as="geometry"/>
                </mxCell>
                <mxCell id="639" value="&lt;span style=&quot;color: rgb(0, 0, 0); font-size: 24px;&quot;&gt;idx: 1&lt;/span&gt;" style="rounded=0;whiteSpace=wrap;html=1;fontFamily=Fira Code;fillColor=#dae8fc;strokeColor=#6c8ebf;" parent="1" vertex="1">
                    <mxGeometry x="1930" y="3820" width="120" height="40" as="geometry"/>
                </mxCell>
                <mxCell id="640" value="&lt;span style=&quot;color: rgb(0, 0, 0); font-size: 24px;&quot;&gt;idx: 3&lt;/span&gt;" style="rounded=0;whiteSpace=wrap;html=1;fontFamily=Fira Code;fillColor=#dae8fc;strokeColor=#6c8ebf;" parent="1" vertex="1">
                    <mxGeometry x="1930" y="3900" width="120" height="40" as="geometry"/>
                </mxCell>
                <mxCell id="641" value="&lt;span style=&quot;color: rgb(0, 0, 0); font-size: 24px;&quot;&gt;idx: 0&lt;/span&gt;" style="rounded=0;whiteSpace=wrap;html=1;fontFamily=Fira Code;fillColor=#dae8fc;strokeColor=#6c8ebf;" parent="1" vertex="1">
                    <mxGeometry x="1930" y="3780" width="120" height="40" as="geometry"/>
                </mxCell>
                <mxCell id="642" value="_M_buckets" style="text;html=1;align=center;verticalAlign=middle;whiteSpace=wrap;rounded=0;fontSize=36;fontFamily=Fira Code;" parent="1" vertex="1">
                    <mxGeometry x="1740" y="3750" width="160" height="30" as="geometry"/>
                </mxCell>
                <mxCell id="643" value="&lt;font style=&quot;font-size: 24px;&quot;&gt;nullptr&lt;/font&gt;" style="rounded=0;whiteSpace=wrap;html=1;fontFamily=Fira Code;fillColor=#f5f5f5;fontColor=#333333;strokeColor=#666666;" parent="1" vertex="1">
                    <mxGeometry x="2650" y="3980" width="120" height="40" as="geometry"/>
                </mxCell>
                <mxCell id="644" value="__node" style="rounded=0;whiteSpace=wrap;html=1;fillColor=#f8cecc;strokeColor=#b85450;fontSize=24;fontFamily=Fira Code;" parent="1" vertex="1">
                    <mxGeometry x="2410" y="3940" width="200" height="40" as="geometry"/>
                </mxCell>
                <mxCell id="645" value="&lt;font style=&quot;font-size: 24px;&quot;&gt;插入新节点(1, &quot;one&quot;)，插入到_M_before_begin的之后，头插法&lt;/font&gt;" style="text;html=1;align=center;verticalAlign=middle;resizable=0;points=[];autosize=1;strokeColor=none;fillColor=none;" parent="1" vertex="1">
                    <mxGeometry x="2090" y="3700" width="690" height="40" as="geometry"/>
                </mxCell>
                <mxCell id="646" style="edgeStyle=none;html=1;entryX=0;entryY=0.5;entryDx=0;entryDy=0;" parent="1" source="647" target="574" edge="1">
                    <mxGeometry relative="1" as="geometry"/>
                </mxCell>
                <mxCell id="647" value="&lt;font face=&quot;Fira Code&quot; style=&quot;font-size: 24px;&quot;&gt;nxt&lt;/font&gt;" style="rounded=0;whiteSpace=wrap;html=1;fillColor=#e1d5e7;strokeColor=#9673a6;" parent="1" vertex="1">
                    <mxGeometry x="2330" y="3380" width="40" height="40" as="geometry"/>
                </mxCell>
                <mxCell id="648" style="edgeStyle=none;html=1;" parent="1" source="649" target="628" edge="1">
                    <mxGeometry relative="1" as="geometry"/>
                </mxCell>
                <mxCell id="649" value="&lt;font face=&quot;Fira Code&quot; style=&quot;font-size: 24px;&quot;&gt;nxt&lt;/font&gt;" style="rounded=0;whiteSpace=wrap;html=1;fillColor=#e1d5e7;strokeColor=#9673a6;" parent="1" vertex="1">
                    <mxGeometry x="2330" y="3980" width="40" height="40" as="geometry"/>
                </mxCell>
                <mxCell id="650" style="edgeStyle=none;html=1;entryX=0;entryY=0.5;entryDx=0;entryDy=0;" parent="1" source="651" target="643" edge="1">
                    <mxGeometry relative="1" as="geometry"/>
                </mxCell>
                <mxCell id="651" value="&lt;font face=&quot;Fira Code&quot; style=&quot;font-size: 24px;&quot;&gt;nxt&lt;/font&gt;" style="rounded=0;whiteSpace=wrap;html=1;fillColor=#e1d5e7;strokeColor=#9673a6;" parent="1" vertex="1">
                    <mxGeometry x="2570" y="3980" width="40" height="40" as="geometry"/>
                </mxCell>
                <mxCell id="652" style="edgeStyle=none;html=1;entryX=0;entryY=0.5;entryDx=0;entryDy=0;" parent="1" source="653" target="623" edge="1">
                    <mxGeometry relative="1" as="geometry"/>
                </mxCell>
                <mxCell id="653" value="&lt;font face=&quot;Fira Code&quot; style=&quot;font-size: 24px;&quot;&gt;nxt&lt;/font&gt;" style="rounded=0;whiteSpace=wrap;html=1;fillColor=#e1d5e7;strokeColor=#9673a6;" parent="1" vertex="1">
                    <mxGeometry x="2570" y="4540" width="40" height="40" as="geometry"/>
                </mxCell>
                <mxCell id="654" style="edgeStyle=none;html=1;" parent="1" source="655" target="576" edge="1">
                    <mxGeometry relative="1" as="geometry"/>
                </mxCell>
                <mxCell id="655" value="&lt;font face=&quot;Fira Code&quot; style=&quot;font-size: 24px;&quot;&gt;nxt&lt;/font&gt;" style="rounded=0;whiteSpace=wrap;html=1;fillColor=#e1d5e7;strokeColor=#9673a6;" parent="1" vertex="1">
                    <mxGeometry x="2330" y="4540" width="40" height="40" as="geometry"/>
                </mxCell>
                <mxCell id="656" style="edgeStyle=none;html=1;entryX=0;entryY=0.5;entryDx=0;entryDy=0;" parent="1" source="657" target="624" edge="1">
                    <mxGeometry relative="1" as="geometry"/>
                </mxCell>
                <mxCell id="657" value="&lt;font face=&quot;Fira Code&quot; style=&quot;font-size: 24px;&quot;&gt;nxt&lt;/font&gt;" style="rounded=0;whiteSpace=wrap;html=1;fillColor=#e1d5e7;strokeColor=#9673a6;" parent="1" vertex="1">
                    <mxGeometry x="2810" y="5300" width="40" height="40" as="geometry"/>
                </mxCell>
                <mxCell id="658" style="edgeStyle=none;html=1;exitX=1;exitY=0.5;exitDx=0;exitDy=0;entryX=0;entryY=0.5;entryDx=0;entryDy=0;" parent="1" source="659" target="607" edge="1">
                    <mxGeometry relative="1" as="geometry">
                        <mxPoint x="2645" y="5290" as="targetPoint"/>
                    </mxGeometry>
                </mxCell>
                <mxCell id="659" value="&lt;font face=&quot;Fira Code&quot; style=&quot;font-size: 24px;&quot;&gt;nxt&lt;/font&gt;" style="rounded=0;whiteSpace=wrap;html=1;fillColor=#e1d5e7;strokeColor=#9673a6;" parent="1" vertex="1">
                    <mxGeometry x="2570" y="5300" width="40" height="40" as="geometry"/>
                </mxCell>
                <mxCell id="660" style="edgeStyle=none;html=1;entryX=0;entryY=0.5;entryDx=0;entryDy=0;" parent="1" source="661" target="572" edge="1">
                    <mxGeometry relative="1" as="geometry"/>
                </mxCell>
                <mxCell id="661" value="&lt;font face=&quot;Fira Code&quot; style=&quot;font-size: 24px;&quot;&gt;nxt&lt;/font&gt;" style="rounded=0;whiteSpace=wrap;html=1;fillColor=#e1d5e7;strokeColor=#9673a6;" parent="1" vertex="1">
                    <mxGeometry x="2330" y="5300" width="40" height="40" as="geometry"/>
                </mxCell>
                <mxCell id="662" value="&lt;font style=&quot;font-size: 24px;&quot;&gt;4, &quot;four&lt;/font&gt;&lt;span style=&quot;color: rgb(63, 63, 63); font-size: 24px; background-color: transparent;&quot;&gt;&quot;&lt;/span&gt;" style="rounded=0;whiteSpace=wrap;html=1;fontFamily=Fira Code;fillColor=#f8cecc;strokeColor=#b85450;" parent="1" vertex="1">
                    <mxGeometry x="2490" y="6180" width="160" height="40" as="geometry"/>
                </mxCell>
                <mxCell id="663" value="_M_before_begin" style="rounded=0;whiteSpace=wrap;html=1;fontSize=24;fontFamily=Fira Code;fillColor=#fff2cc;strokeColor=#d6b656;" parent="1" vertex="1">
                    <mxGeometry x="2090" y="6180" width="240" height="40" as="geometry"/>
                </mxCell>
                <mxCell id="664" value="&lt;font style=&quot;font-size: 24px;&quot;&gt;1, &quot;one&quot;&lt;/font&gt;" style="rounded=0;whiteSpace=wrap;html=1;fontFamily=Fira Code;fillColor=#d5e8d4;strokeColor=#82b366;" parent="1" vertex="1">
                    <mxGeometry x="2810" y="6060" width="160" height="40" as="geometry"/>
                </mxCell>
                <mxCell id="665" value="&lt;span style=&quot;color: rgb(0, 0, 0); font-size: 24px;&quot;&gt;idx: 11&lt;/span&gt;" style="rounded=0;whiteSpace=wrap;html=1;fontFamily=Fira Code;fillColor=#dae8fc;strokeColor=#6c8ebf;" parent="1" vertex="1">
                    <mxGeometry x="1930" y="6460" width="120" height="40" as="geometry"/>
                </mxCell>
                <mxCell id="666" value="&lt;span style=&quot;color: rgb(0, 0, 0); font-size: 24px;&quot;&gt;idx: 10&lt;/span&gt;" style="rounded=0;whiteSpace=wrap;html=1;fontFamily=Fira Code;fillColor=#dae8fc;strokeColor=#6c8ebf;" parent="1" vertex="1">
                    <mxGeometry x="1930" y="6420" width="120" height="40" as="geometry"/>
                </mxCell>
                <mxCell id="667" value="&lt;span style=&quot;color: rgb(0, 0, 0); font-size: 24px;&quot;&gt;idx: 12&lt;/span&gt;" style="rounded=0;whiteSpace=wrap;html=1;fontFamily=Fira Code;fillColor=#dae8fc;strokeColor=#6c8ebf;" parent="1" vertex="1">
                    <mxGeometry x="1930" y="6500" width="120" height="40" as="geometry"/>
                </mxCell>
                <mxCell id="668" value="&lt;span style=&quot;color: rgb(0, 0, 0); font-size: 24px;&quot;&gt;idx: 8&lt;/span&gt;" style="rounded=0;whiteSpace=wrap;html=1;fontFamily=Fira Code;fillColor=#dae8fc;strokeColor=#6c8ebf;" parent="1" vertex="1">
                    <mxGeometry x="1930" y="6340" width="120" height="40" as="geometry"/>
                </mxCell>
                <mxCell id="669" value="&lt;span style=&quot;color: rgb(0, 0, 0); font-size: 24px;&quot;&gt;idx: 7&lt;/span&gt;" style="rounded=0;whiteSpace=wrap;html=1;fontFamily=Fira Code;fillColor=#dae8fc;strokeColor=#6c8ebf;" parent="1" vertex="1">
                    <mxGeometry x="1930" y="6300" width="120" height="40" as="geometry"/>
                </mxCell>
                <mxCell id="670" value="&lt;span style=&quot;color: rgb(0, 0, 0); font-size: 24px;&quot;&gt;idx: 9&lt;/span&gt;" style="rounded=0;whiteSpace=wrap;html=1;fontFamily=Fira Code;fillColor=#dae8fc;strokeColor=#6c8ebf;" parent="1" vertex="1">
                    <mxGeometry x="1930" y="6380" width="120" height="40" as="geometry"/>
                </mxCell>
                <mxCell id="671" value="&lt;span style=&quot;color: rgb(0, 0, 0); font-size: 24px;&quot;&gt;idx: 5&lt;/span&gt;" style="rounded=0;whiteSpace=wrap;html=1;fontFamily=Fira Code;fillColor=#dae8fc;strokeColor=#6c8ebf;" parent="1" vertex="1">
                    <mxGeometry x="1930" y="6220" width="120" height="40" as="geometry"/>
                </mxCell>
                <mxCell id="672" style="edgeStyle=none;html=1;entryX=0;entryY=0.5;entryDx=0;entryDy=0;" parent="1" source="673" target="663" edge="1">
                    <mxGeometry relative="1" as="geometry"/>
                </mxCell>
                <mxCell id="673" value="&lt;span style=&quot;color: rgb(0, 0, 0); font-size: 24px;&quot;&gt;idx: 4&lt;/span&gt;" style="rounded=0;whiteSpace=wrap;html=1;fontFamily=Fira Code;fillColor=#dae8fc;strokeColor=#6c8ebf;" parent="1" vertex="1">
                    <mxGeometry x="1930" y="6180" width="120" height="40" as="geometry"/>
                </mxCell>
                <mxCell id="674" value="&lt;span style=&quot;color: rgb(0, 0, 0); font-size: 24px;&quot;&gt;idx: 6&lt;/span&gt;" style="rounded=0;whiteSpace=wrap;html=1;fontFamily=Fira Code;fillColor=#dae8fc;strokeColor=#6c8ebf;" parent="1" vertex="1">
                    <mxGeometry x="1930" y="6260" width="120" height="40" as="geometry"/>
                </mxCell>
                <mxCell id="675" value="&lt;span style=&quot;color: rgb(0, 0, 0); font-size: 24px;&quot;&gt;idx: 2&lt;/span&gt;" style="rounded=0;whiteSpace=wrap;html=1;fontFamily=Fira Code;fillColor=#dae8fc;strokeColor=#6c8ebf;" parent="1" vertex="1">
                    <mxGeometry x="1930" y="6100" width="120" height="40" as="geometry"/>
                </mxCell>
                <mxCell id="676" style="edgeStyle=none;html=1;entryX=0;entryY=0.5;entryDx=0;entryDy=0;" parent="1" source="677" target="662" edge="1">
                    <mxGeometry relative="1" as="geometry">
                        <mxPoint x="2180" y="6090" as="targetPoint"/>
                    </mxGeometry>
                </mxCell>
                <mxCell id="677" value="&lt;span style=&quot;color: rgb(0, 0, 0); font-size: 24px;&quot;&gt;idx: 1&lt;/span&gt;" style="rounded=0;whiteSpace=wrap;html=1;fontFamily=Fira Code;fillColor=#dae8fc;strokeColor=#6c8ebf;" parent="1" vertex="1">
                    <mxGeometry x="1930" y="6060" width="120" height="40" as="geometry"/>
                </mxCell>
                <mxCell id="678" value="&lt;span style=&quot;color: rgb(0, 0, 0); font-size: 24px;&quot;&gt;idx: 3&lt;/span&gt;" style="rounded=0;whiteSpace=wrap;html=1;fontFamily=Fira Code;fillColor=#dae8fc;strokeColor=#6c8ebf;" parent="1" vertex="1">
                    <mxGeometry x="1930" y="6140" width="120" height="40" as="geometry"/>
                </mxCell>
                <mxCell id="679" value="&lt;span style=&quot;color: rgb(0, 0, 0); font-size: 24px;&quot;&gt;idx: 0&lt;/span&gt;" style="rounded=0;whiteSpace=wrap;html=1;fontFamily=Fira Code;fillColor=#dae8fc;strokeColor=#6c8ebf;" parent="1" vertex="1">
                    <mxGeometry x="1930" y="6020" width="120" height="40" as="geometry"/>
                </mxCell>
                <mxCell id="680" value="_M_buckets" style="text;html=1;align=center;verticalAlign=middle;whiteSpace=wrap;rounded=0;fontSize=36;fontFamily=Fira Code;" parent="1" vertex="1">
                    <mxGeometry x="1740" y="5990" width="160" height="30" as="geometry"/>
                </mxCell>
                <mxCell id="681" value="&lt;font style=&quot;font-size: 24px;&quot;&gt;nullptr&lt;/font&gt;" style="rounded=0;whiteSpace=wrap;html=1;fontFamily=Fira Code;fillColor=#f5f5f5;fontColor=#333333;strokeColor=#666666;" parent="1" vertex="1">
                    <mxGeometry x="3050" y="6060" width="120" height="40" as="geometry"/>
                </mxCell>
                <mxCell id="682" value="__node" style="rounded=0;whiteSpace=wrap;html=1;fillColor=#f8cecc;strokeColor=#b85450;fontSize=24;fontFamily=Fira Code;" parent="1" vertex="1">
                    <mxGeometry x="2490" y="6140" width="200" height="40" as="geometry"/>
                </mxCell>
                <mxCell id="683" style="edgeStyle=none;html=1;entryX=0;entryY=0.5;entryDx=0;entryDy=0;" parent="1" source="684" target="681" edge="1">
                    <mxGeometry relative="1" as="geometry"/>
                </mxCell>
                <mxCell id="684" value="&lt;font face=&quot;Fira Code&quot; style=&quot;font-size: 24px;&quot;&gt;nxt&lt;/font&gt;" style="rounded=0;whiteSpace=wrap;html=1;fillColor=#e1d5e7;strokeColor=#9673a6;" parent="1" vertex="1">
                    <mxGeometry x="2970" y="6060" width="40" height="40" as="geometry"/>
                </mxCell>
                <mxCell id="685" style="edgeStyle=none;html=1;exitX=1;exitY=0.5;exitDx=0;exitDy=0;entryX=0;entryY=0.5;entryDx=0;entryDy=0;" parent="1" source="686" target="664" edge="1">
                    <mxGeometry relative="1" as="geometry">
                        <mxPoint x="2725" y="6050" as="targetPoint"/>
                    </mxGeometry>
                </mxCell>
                <mxCell id="686" value="&lt;font face=&quot;Fira Code&quot; style=&quot;font-size: 24px;&quot;&gt;nxt&lt;/font&gt;" style="rounded=0;whiteSpace=wrap;html=1;fillColor=#e1d5e7;strokeColor=#9673a6;" parent="1" vertex="1">
                    <mxGeometry x="2650" y="6180" width="40" height="40" as="geometry"/>
                </mxCell>
                <mxCell id="687" style="edgeStyle=none;html=1;entryX=0;entryY=0.5;entryDx=0;entryDy=0;" parent="1" source="688" target="662" edge="1">
                    <mxGeometry relative="1" as="geometry"/>
                </mxCell>
                <mxCell id="688" value="&lt;font face=&quot;Fira Code&quot; style=&quot;font-size: 24px;&quot;&gt;nxt&lt;/font&gt;" style="rounded=0;whiteSpace=wrap;html=1;fillColor=#e1d5e7;strokeColor=#9673a6;" parent="1" vertex="1">
                    <mxGeometry x="2330" y="6180" width="40" height="40" as="geometry"/>
                </mxCell>
                <mxCell id="689" value="&lt;font style=&quot;font-size: 24px;&quot;&gt;4, &quot;four&lt;/font&gt;&lt;span style=&quot;color: rgb(63, 63, 63); font-size: 24px; background-color: transparent;&quot;&gt;&quot;&lt;/span&gt;" style="rounded=0;whiteSpace=wrap;html=1;fontFamily=Fira Code;fillColor=#d5e8d4;strokeColor=#82b366;" parent="1" vertex="1">
                    <mxGeometry x="2810" y="6940" width="160" height="40" as="geometry"/>
                </mxCell>
                <mxCell id="690" value="_M_before_begin" style="rounded=0;whiteSpace=wrap;html=1;fontSize=24;fontFamily=Fira Code;fillColor=#fff2cc;strokeColor=#d6b656;" parent="1" vertex="1">
                    <mxGeometry x="2090" y="7100" width="240" height="40" as="geometry"/>
                </mxCell>
                <mxCell id="691" value="&lt;font style=&quot;font-size: 24px;&quot;&gt;1, &quot;one&quot;&lt;/font&gt;" style="rounded=0;whiteSpace=wrap;html=1;fontFamily=Fira Code;fillColor=#d5e8d4;strokeColor=#82b366;" parent="1" vertex="1">
                    <mxGeometry x="3130" y="6820" width="160" height="40" as="geometry"/>
                </mxCell>
                <mxCell id="692" value="&lt;span style=&quot;color: rgb(0, 0, 0); font-size: 24px;&quot;&gt;idx: 11&lt;/span&gt;" style="rounded=0;whiteSpace=wrap;html=1;fontFamily=Fira Code;fillColor=#dae8fc;strokeColor=#6c8ebf;" parent="1" vertex="1">
                    <mxGeometry x="1930" y="7220" width="120" height="40" as="geometry"/>
                </mxCell>
                <mxCell id="693" value="&lt;span style=&quot;color: rgb(0, 0, 0); font-size: 24px;&quot;&gt;idx: 10&lt;/span&gt;" style="rounded=0;whiteSpace=wrap;html=1;fontFamily=Fira Code;fillColor=#dae8fc;strokeColor=#6c8ebf;" parent="1" vertex="1">
                    <mxGeometry x="1930" y="7180" width="120" height="40" as="geometry"/>
                </mxCell>
                <mxCell id="694" value="&lt;span style=&quot;color: rgb(0, 0, 0); font-size: 24px;&quot;&gt;idx: 12&lt;/span&gt;" style="rounded=0;whiteSpace=wrap;html=1;fontFamily=Fira Code;fillColor=#dae8fc;strokeColor=#6c8ebf;" parent="1" vertex="1">
                    <mxGeometry x="1930" y="7260" width="120" height="40" as="geometry"/>
                </mxCell>
                <mxCell id="695" style="edgeStyle=none;html=1;exitX=1;exitY=0.5;exitDx=0;exitDy=0;entryX=0;entryY=0.5;entryDx=0;entryDy=0;" parent="1" source="696" target="690" edge="1">
                    <mxGeometry relative="1" as="geometry"/>
                </mxCell>
                <mxCell id="696" value="&lt;span style=&quot;color: rgb(0, 0, 0); font-size: 24px;&quot;&gt;idx: 8&lt;/span&gt;" style="rounded=0;whiteSpace=wrap;html=1;fontFamily=Fira Code;fillColor=#dae8fc;strokeColor=#6c8ebf;" parent="1" vertex="1">
                    <mxGeometry x="1930" y="7100" width="120" height="40" as="geometry"/>
                </mxCell>
                <mxCell id="697" value="&lt;span style=&quot;color: rgb(0, 0, 0); font-size: 24px;&quot;&gt;idx: 7&lt;/span&gt;" style="rounded=0;whiteSpace=wrap;html=1;fontFamily=Fira Code;fillColor=#dae8fc;strokeColor=#6c8ebf;" parent="1" vertex="1">
                    <mxGeometry x="1930" y="7060" width="120" height="40" as="geometry"/>
                </mxCell>
                <mxCell id="698" value="&lt;span style=&quot;color: rgb(0, 0, 0); font-size: 24px;&quot;&gt;idx: 9&lt;/span&gt;" style="rounded=0;whiteSpace=wrap;html=1;fontFamily=Fira Code;fillColor=#dae8fc;strokeColor=#6c8ebf;" parent="1" vertex="1">
                    <mxGeometry x="1930" y="7140" width="120" height="40" as="geometry"/>
                </mxCell>
                <mxCell id="699" value="&lt;span style=&quot;color: rgb(0, 0, 0); font-size: 24px;&quot;&gt;idx: 5&lt;/span&gt;" style="rounded=0;whiteSpace=wrap;html=1;fontFamily=Fira Code;fillColor=#dae8fc;strokeColor=#6c8ebf;" parent="1" vertex="1">
                    <mxGeometry x="1930" y="6980" width="120" height="40" as="geometry"/>
                </mxCell>
                <mxCell id="700" style="edgeStyle=none;html=1;exitX=1;exitY=0.5;exitDx=0;exitDy=0;entryX=0;entryY=0.5;entryDx=0;entryDy=0;" parent="1" source="701" target="716" edge="1">
                    <mxGeometry relative="1" as="geometry"/>
                </mxCell>
                <mxCell id="701" value="&lt;span style=&quot;color: rgb(0, 0, 0); font-size: 24px;&quot;&gt;idx: 4&lt;/span&gt;" style="rounded=0;whiteSpace=wrap;html=1;fontFamily=Fira Code;fillColor=#dae8fc;strokeColor=#6c8ebf;" parent="1" vertex="1">
                    <mxGeometry x="1930" y="6940" width="120" height="40" as="geometry"/>
                </mxCell>
                <mxCell id="702" value="&lt;span style=&quot;color: rgb(0, 0, 0); font-size: 24px;&quot;&gt;idx: 6&lt;/span&gt;" style="rounded=0;whiteSpace=wrap;html=1;fontFamily=Fira Code;fillColor=#dae8fc;strokeColor=#6c8ebf;" parent="1" vertex="1">
                    <mxGeometry x="1930" y="7020" width="120" height="40" as="geometry"/>
                </mxCell>
                <mxCell id="703" value="&lt;span style=&quot;color: rgb(0, 0, 0); font-size: 24px;&quot;&gt;idx: 2&lt;/span&gt;" style="rounded=0;whiteSpace=wrap;html=1;fontFamily=Fira Code;fillColor=#dae8fc;strokeColor=#6c8ebf;" parent="1" vertex="1">
                    <mxGeometry x="1930" y="6860" width="120" height="40" as="geometry"/>
                </mxCell>
                <mxCell id="704" style="edgeStyle=none;html=1;entryX=0;entryY=0.5;entryDx=0;entryDy=0;" parent="1" source="705" target="689" edge="1">
                    <mxGeometry relative="1" as="geometry">
                        <mxPoint x="2180" y="6850" as="targetPoint"/>
                    </mxGeometry>
                </mxCell>
                <mxCell id="705" value="&lt;span style=&quot;color: rgb(0, 0, 0); font-size: 24px;&quot;&gt;idx: 1&lt;/span&gt;" style="rounded=0;whiteSpace=wrap;html=1;fontFamily=Fira Code;fillColor=#dae8fc;strokeColor=#6c8ebf;" parent="1" vertex="1">
                    <mxGeometry x="1930" y="6820" width="120" height="40" as="geometry"/>
                </mxCell>
                <mxCell id="706" value="&lt;span style=&quot;color: rgb(0, 0, 0); font-size: 24px;&quot;&gt;idx: 3&lt;/span&gt;" style="rounded=0;whiteSpace=wrap;html=1;fontFamily=Fira Code;fillColor=#dae8fc;strokeColor=#6c8ebf;" parent="1" vertex="1">
                    <mxGeometry x="1930" y="6900" width="120" height="40" as="geometry"/>
                </mxCell>
                <mxCell id="707" value="&lt;span style=&quot;color: rgb(0, 0, 0); font-size: 24px;&quot;&gt;idx: 0&lt;/span&gt;" style="rounded=0;whiteSpace=wrap;html=1;fontFamily=Fira Code;fillColor=#dae8fc;strokeColor=#6c8ebf;" parent="1" vertex="1">
                    <mxGeometry x="1930" y="6780" width="120" height="40" as="geometry"/>
                </mxCell>
                <mxCell id="708" value="_M_buckets" style="text;html=1;align=center;verticalAlign=middle;whiteSpace=wrap;rounded=0;fontSize=36;fontFamily=Fira Code;" parent="1" vertex="1">
                    <mxGeometry x="1740" y="6750" width="160" height="30" as="geometry"/>
                </mxCell>
                <mxCell id="709" value="&lt;font style=&quot;font-size: 24px;&quot;&gt;nullptr&lt;/font&gt;" style="rounded=0;whiteSpace=wrap;html=1;fontFamily=Fira Code;fillColor=#f5f5f5;fontColor=#333333;strokeColor=#666666;" parent="1" vertex="1">
                    <mxGeometry x="3370" y="6820" width="120" height="40" as="geometry"/>
                </mxCell>
                <mxCell id="710" style="edgeStyle=none;html=1;entryX=0;entryY=0.5;entryDx=0;entryDy=0;" parent="1" source="711" target="709" edge="1">
                    <mxGeometry relative="1" as="geometry"/>
                </mxCell>
                <mxCell id="711" value="&lt;font face=&quot;Fira Code&quot; style=&quot;font-size: 24px;&quot;&gt;nxt&lt;/font&gt;" style="rounded=0;whiteSpace=wrap;html=1;fillColor=#e1d5e7;strokeColor=#9673a6;" parent="1" vertex="1">
                    <mxGeometry x="3290" y="6820" width="40" height="40" as="geometry"/>
                </mxCell>
                <mxCell id="712" style="edgeStyle=none;html=1;exitX=1;exitY=0.5;exitDx=0;exitDy=0;entryX=0;entryY=0.5;entryDx=0;entryDy=0;" parent="1" source="713" target="691" edge="1">
                    <mxGeometry relative="1" as="geometry">
                        <mxPoint x="3045" y="6930" as="targetPoint"/>
                    </mxGeometry>
                </mxCell>
                <mxCell id="713" value="&lt;font face=&quot;Fira Code&quot; style=&quot;font-size: 24px;&quot;&gt;nxt&lt;/font&gt;" style="rounded=0;whiteSpace=wrap;html=1;fillColor=#e1d5e7;strokeColor=#9673a6;" parent="1" vertex="1">
                    <mxGeometry x="2970" y="6940" width="40" height="40" as="geometry"/>
                </mxCell>
                <mxCell id="714" style="edgeStyle=none;html=1;exitX=1;exitY=0.5;exitDx=0;exitDy=0;entryX=0;entryY=0.5;entryDx=0;entryDy=0;" parent="1" source="715" target="716" edge="1">
                    <mxGeometry relative="1" as="geometry"/>
                </mxCell>
                <mxCell id="715" value="&lt;font face=&quot;Fira Code&quot; style=&quot;font-size: 24px;&quot;&gt;nxt&lt;/font&gt;" style="rounded=0;whiteSpace=wrap;html=1;fillColor=#e1d5e7;strokeColor=#9673a6;" parent="1" vertex="1">
                    <mxGeometry x="2330" y="7100" width="40" height="40" as="geometry"/>
                </mxCell>
                <mxCell id="716" value="&lt;font style=&quot;font-size: 24px;&quot;&gt;8, &quot;eight&lt;/font&gt;&lt;span style=&quot;color: rgb(63, 63, 63); font-size: 24px; background-color: transparent;&quot;&gt;&quot;&lt;/span&gt;" style="rounded=0;whiteSpace=wrap;html=1;fontFamily=Fira Code;fillColor=#f8cecc;strokeColor=#b85450;" parent="1" vertex="1">
                    <mxGeometry x="2490" y="7100" width="160" height="40" as="geometry"/>
                </mxCell>
                <mxCell id="717" value="__node" style="rounded=0;whiteSpace=wrap;html=1;fillColor=#f8cecc;strokeColor=#b85450;fontSize=24;fontFamily=Fira Code;" parent="1" vertex="1">
                    <mxGeometry x="2490" y="7060" width="200" height="40" as="geometry"/>
                </mxCell>
                <mxCell id="718" style="edgeStyle=none;html=1;exitX=1;exitY=0.5;exitDx=0;exitDy=0;entryX=0;entryY=0.5;entryDx=0;entryDy=0;" parent="1" source="719" target="689" edge="1">
                    <mxGeometry relative="1" as="geometry"/>
                </mxCell>
                <mxCell id="719" value="&lt;font face=&quot;Fira Code&quot; style=&quot;font-size: 24px;&quot;&gt;nxt&lt;/font&gt;" style="rounded=0;whiteSpace=wrap;html=1;fillColor=#e1d5e7;strokeColor=#9673a6;" parent="1" vertex="1">
                    <mxGeometry x="2650" y="7100" width="40" height="40" as="geometry"/>
                </mxCell>
                <mxCell id="720" value="&lt;span style=&quot;font-size: 24px;&quot;&gt;设置桶中指针_M_buckets[1]指向链表的前驱节点_M_before_begin&lt;/span&gt;" style="text;html=1;align=center;verticalAlign=middle;resizable=0;points=[];autosize=1;strokeColor=none;fillColor=none;" parent="1" vertex="1">
                    <mxGeometry x="2090" y="4420" width="730" height="40" as="geometry"/>
                </mxCell>
                <mxCell id="721" value="&lt;span style=&quot;font-size: 24px;&quot;&gt;插入新节点(4, &quot;four&quot;)，头插法，插入到_M_before_begin之后，节点1之前&lt;/span&gt;" style="text;html=1;align=center;verticalAlign=middle;resizable=0;points=[];autosize=1;strokeColor=none;fillColor=none;" parent="1" vertex="1">
                    <mxGeometry x="2090" y="5140" width="800" height="40" as="geometry"/>
                </mxCell>
                <mxCell id="722" value="&lt;font style=&quot;font-size: 24px;&quot;&gt;rehash之后，_M_before_begin为链表头节点的前驱节点，此时链表头节点是nullptr&lt;/font&gt;" style="text;html=1;align=center;verticalAlign=middle;resizable=0;points=[];autosize=1;strokeColor=none;fillColor=none;" parent="1" vertex="1">
                    <mxGeometry x="2090" y="3180" width="900" height="40" as="geometry"/>
                </mxCell>
                <mxCell id="723" value="&lt;span style=&quot;font-size: 24px;&quot;&gt;前头节点为nullptr，不需要更新&lt;/span&gt;" style="text;html=1;align=center;verticalAlign=middle;resizable=0;points=[];autosize=1;strokeColor=none;fillColor=none;" parent="1" vertex="1">
                    <mxGeometry x="2090" y="3750" width="350" height="40" as="geometry"/>
                </mxCell>
                <mxCell id="724" value="&lt;span style=&quot;font-size: 24px;&quot;&gt;前头节点为(1, &quot;one&quot;)，不为nullptr，需要更新&lt;/span&gt;" style="text;html=1;align=center;verticalAlign=middle;resizable=0;points=[];autosize=1;strokeColor=none;fillColor=none;" parent="1" vertex="1">
                    <mxGeometry x="2090" y="5220" width="500" height="40" as="geometry"/>
                </mxCell>
                <mxCell id="725" value="&lt;span style=&quot;font-size: 24px;&quot;&gt;调整前头节点&lt;/span&gt;" style="text;html=1;align=center;verticalAlign=middle;resizable=0;points=[];autosize=1;strokeColor=none;fillColor=none;" parent="1" vertex="1">
                    <mxGeometry x="2090" y="5980" width="170" height="40" as="geometry"/>
                </mxCell>
                <mxCell id="726" value="&lt;span style=&quot;font-size: 24px;&quot;&gt;设置_M_buckets[4]指向链表前驱节点_M_before_begin&lt;/span&gt;" style="text;html=1;align=center;verticalAlign=middle;resizable=0;points=[];autosize=1;strokeColor=none;fillColor=none;" parent="1" vertex="1">
                    <mxGeometry x="2090" y="5910" width="610" height="40" as="geometry"/>
                </mxCell>
                <mxCell id="727" value="&lt;font style=&quot;font-size: 24px;&quot;&gt;4, &quot;four&lt;/font&gt;&lt;span style=&quot;color: rgb(63, 63, 63); font-size: 24px; background-color: transparent;&quot;&gt;&quot;&lt;/span&gt;" style="rounded=0;whiteSpace=wrap;html=1;fontFamily=Fira Code;fillColor=#d5e8d4;strokeColor=#82b366;" parent="1" vertex="1">
                    <mxGeometry x="3130" y="7740" width="160" height="40" as="geometry"/>
                </mxCell>
                <mxCell id="728" value="_M_before_begin" style="rounded=0;whiteSpace=wrap;html=1;fontSize=24;fontFamily=Fira Code;fillColor=#fff2cc;strokeColor=#d6b656;" parent="1" vertex="1">
                    <mxGeometry x="2090" y="8060" width="240" height="40" as="geometry"/>
                </mxCell>
                <mxCell id="729" value="&lt;font style=&quot;font-size: 24px;&quot;&gt;1, &quot;one&quot;&lt;/font&gt;" style="rounded=0;whiteSpace=wrap;html=1;fontFamily=Fira Code;fillColor=#d5e8d4;strokeColor=#82b366;" parent="1" vertex="1">
                    <mxGeometry x="3450" y="7620" width="160" height="40" as="geometry"/>
                </mxCell>
                <mxCell id="730" value="&lt;span style=&quot;color: rgb(0, 0, 0); font-size: 24px;&quot;&gt;idx: 11&lt;/span&gt;" style="rounded=0;whiteSpace=wrap;html=1;fontFamily=Fira Code;fillColor=#dae8fc;strokeColor=#6c8ebf;" parent="1" vertex="1">
                    <mxGeometry x="1930" y="8020" width="120" height="40" as="geometry"/>
                </mxCell>
                <mxCell id="731" value="&lt;span style=&quot;color: rgb(0, 0, 0); font-size: 24px;&quot;&gt;idx: 10&lt;/span&gt;" style="rounded=0;whiteSpace=wrap;html=1;fontFamily=Fira Code;fillColor=#dae8fc;strokeColor=#6c8ebf;" parent="1" vertex="1">
                    <mxGeometry x="1930" y="7980" width="120" height="40" as="geometry"/>
                </mxCell>
                <mxCell id="732" style="edgeStyle=none;html=1;exitX=1;exitY=0.5;exitDx=0;exitDy=0;entryX=0;entryY=0.5;entryDx=0;entryDy=0;" parent="1" source="733" target="728" edge="1">
                    <mxGeometry relative="1" as="geometry"/>
                </mxCell>
                <mxCell id="733" value="&lt;span style=&quot;color: rgb(0, 0, 0); font-size: 24px;&quot;&gt;idx: 12&lt;/span&gt;" style="rounded=0;whiteSpace=wrap;html=1;fontFamily=Fira Code;fillColor=#dae8fc;strokeColor=#6c8ebf;" parent="1" vertex="1">
                    <mxGeometry x="1930" y="8060" width="120" height="40" as="geometry"/>
                </mxCell>
                <mxCell id="734" style="edgeStyle=none;html=1;exitX=1;exitY=0.5;exitDx=0;exitDy=0;entryX=0;entryY=0.5;entryDx=0;entryDy=0;" parent="1" source="735" target="758" edge="1">
                    <mxGeometry relative="1" as="geometry"/>
                </mxCell>
                <mxCell id="735" value="&lt;span style=&quot;color: rgb(0, 0, 0); font-size: 24px;&quot;&gt;idx: 8&lt;/span&gt;" style="rounded=0;whiteSpace=wrap;html=1;fontFamily=Fira Code;fillColor=#dae8fc;strokeColor=#6c8ebf;" parent="1" vertex="1">
                    <mxGeometry x="1930" y="7900" width="120" height="40" as="geometry"/>
                </mxCell>
                <mxCell id="736" value="&lt;span style=&quot;color: rgb(0, 0, 0); font-size: 24px;&quot;&gt;idx: 7&lt;/span&gt;" style="rounded=0;whiteSpace=wrap;html=1;fontFamily=Fira Code;fillColor=#dae8fc;strokeColor=#6c8ebf;" parent="1" vertex="1">
                    <mxGeometry x="1930" y="7860" width="120" height="40" as="geometry"/>
                </mxCell>
                <mxCell id="737" value="&lt;span style=&quot;color: rgb(0, 0, 0); font-size: 24px;&quot;&gt;idx: 9&lt;/span&gt;" style="rounded=0;whiteSpace=wrap;html=1;fontFamily=Fira Code;fillColor=#dae8fc;strokeColor=#6c8ebf;" parent="1" vertex="1">
                    <mxGeometry x="1930" y="7940" width="120" height="40" as="geometry"/>
                </mxCell>
                <mxCell id="738" value="&lt;span style=&quot;color: rgb(0, 0, 0); font-size: 24px;&quot;&gt;idx: 5&lt;/span&gt;" style="rounded=0;whiteSpace=wrap;html=1;fontFamily=Fira Code;fillColor=#dae8fc;strokeColor=#6c8ebf;" parent="1" vertex="1">
                    <mxGeometry x="1930" y="7780" width="120" height="40" as="geometry"/>
                </mxCell>
                <mxCell id="739" style="edgeStyle=none;html=1;exitX=1;exitY=0.5;exitDx=0;exitDy=0;entryX=0;entryY=0.5;entryDx=0;entryDy=0;" parent="1" source="740" target="755" edge="1">
                    <mxGeometry relative="1" as="geometry"/>
                </mxCell>
                <mxCell id="740" value="&lt;span style=&quot;color: rgb(0, 0, 0); font-size: 24px;&quot;&gt;idx: 4&lt;/span&gt;" style="rounded=0;whiteSpace=wrap;html=1;fontFamily=Fira Code;fillColor=#dae8fc;strokeColor=#6c8ebf;" parent="1" vertex="1">
                    <mxGeometry x="1930" y="7740" width="120" height="40" as="geometry"/>
                </mxCell>
                <mxCell id="741" value="&lt;span style=&quot;color: rgb(0, 0, 0); font-size: 24px;&quot;&gt;idx: 6&lt;/span&gt;" style="rounded=0;whiteSpace=wrap;html=1;fontFamily=Fira Code;fillColor=#dae8fc;strokeColor=#6c8ebf;" parent="1" vertex="1">
                    <mxGeometry x="1930" y="7820" width="120" height="40" as="geometry"/>
                </mxCell>
                <mxCell id="742" value="&lt;span style=&quot;color: rgb(0, 0, 0); font-size: 24px;&quot;&gt;idx: 2&lt;/span&gt;" style="rounded=0;whiteSpace=wrap;html=1;fontFamily=Fira Code;fillColor=#dae8fc;strokeColor=#6c8ebf;" parent="1" vertex="1">
                    <mxGeometry x="1930" y="7660" width="120" height="40" as="geometry"/>
                </mxCell>
                <mxCell id="743" style="edgeStyle=none;html=1;entryX=0;entryY=0.5;entryDx=0;entryDy=0;" parent="1" source="744" target="727" edge="1">
                    <mxGeometry relative="1" as="geometry">
                        <mxPoint x="2180" y="7650" as="targetPoint"/>
                    </mxGeometry>
                </mxCell>
                <mxCell id="744" value="&lt;span style=&quot;color: rgb(0, 0, 0); font-size: 24px;&quot;&gt;idx: 1&lt;/span&gt;" style="rounded=0;whiteSpace=wrap;html=1;fontFamily=Fira Code;fillColor=#dae8fc;strokeColor=#6c8ebf;" parent="1" vertex="1">
                    <mxGeometry x="1930" y="7620" width="120" height="40" as="geometry"/>
                </mxCell>
                <mxCell id="745" value="&lt;span style=&quot;color: rgb(0, 0, 0); font-size: 24px;&quot;&gt;idx: 3&lt;/span&gt;" style="rounded=0;whiteSpace=wrap;html=1;fontFamily=Fira Code;fillColor=#dae8fc;strokeColor=#6c8ebf;" parent="1" vertex="1">
                    <mxGeometry x="1930" y="7700" width="120" height="40" as="geometry"/>
                </mxCell>
                <mxCell id="746" value="&lt;span style=&quot;color: rgb(0, 0, 0); font-size: 24px;&quot;&gt;idx: 0&lt;/span&gt;" style="rounded=0;whiteSpace=wrap;html=1;fontFamily=Fira Code;fillColor=#dae8fc;strokeColor=#6c8ebf;" parent="1" vertex="1">
                    <mxGeometry x="1930" y="7580" width="120" height="40" as="geometry"/>
                </mxCell>
                <mxCell id="747" value="_M_buckets" style="text;html=1;align=center;verticalAlign=middle;whiteSpace=wrap;rounded=0;fontSize=36;fontFamily=Fira Code;" parent="1" vertex="1">
                    <mxGeometry x="1740" y="7550" width="160" height="30" as="geometry"/>
                </mxCell>
                <mxCell id="748" value="&lt;font style=&quot;font-size: 24px;&quot;&gt;nullptr&lt;/font&gt;" style="rounded=0;whiteSpace=wrap;html=1;fontFamily=Fira Code;fillColor=#f5f5f5;fontColor=#333333;strokeColor=#666666;" parent="1" vertex="1">
                    <mxGeometry x="3690" y="7620" width="120" height="40" as="geometry"/>
                </mxCell>
                <mxCell id="749" style="edgeStyle=none;html=1;entryX=0;entryY=0.5;entryDx=0;entryDy=0;" parent="1" source="750" target="748" edge="1">
                    <mxGeometry relative="1" as="geometry"/>
                </mxCell>
                <mxCell id="750" value="&lt;font face=&quot;Fira Code&quot; style=&quot;font-size: 24px;&quot;&gt;nxt&lt;/font&gt;" style="rounded=0;whiteSpace=wrap;html=1;fillColor=#e1d5e7;strokeColor=#9673a6;" parent="1" vertex="1">
                    <mxGeometry x="3610" y="7620" width="40" height="40" as="geometry"/>
                </mxCell>
                <mxCell id="751" style="edgeStyle=none;html=1;exitX=1;exitY=0.5;exitDx=0;exitDy=0;entryX=0;entryY=0.5;entryDx=0;entryDy=0;" parent="1" source="752" target="729" edge="1">
                    <mxGeometry relative="1" as="geometry">
                        <mxPoint x="3365" y="7730" as="targetPoint"/>
                    </mxGeometry>
                </mxCell>
                <mxCell id="752" value="&lt;font face=&quot;Fira Code&quot; style=&quot;font-size: 24px;&quot;&gt;nxt&lt;/font&gt;" style="rounded=0;whiteSpace=wrap;html=1;fillColor=#e1d5e7;strokeColor=#9673a6;" parent="1" vertex="1">
                    <mxGeometry x="3290" y="7740" width="40" height="40" as="geometry"/>
                </mxCell>
                <mxCell id="753" style="edgeStyle=none;html=1;exitX=1;exitY=0.5;exitDx=0;exitDy=0;entryX=0;entryY=0.5;entryDx=0;entryDy=0;" parent="1" source="754" target="758" edge="1">
                    <mxGeometry relative="1" as="geometry"/>
                </mxCell>
                <mxCell id="754" value="&lt;font face=&quot;Fira Code&quot; style=&quot;font-size: 24px;&quot;&gt;nxt&lt;/font&gt;" style="rounded=0;whiteSpace=wrap;html=1;fillColor=#e1d5e7;strokeColor=#9673a6;" parent="1" vertex="1">
                    <mxGeometry x="2330" y="8060" width="40" height="40" as="geometry"/>
                </mxCell>
                <mxCell id="755" value="&lt;font style=&quot;font-size: 24px;&quot;&gt;8, &quot;eight&lt;/font&gt;&lt;span style=&quot;color: rgb(63, 63, 63); font-size: 24px; background-color: transparent;&quot;&gt;&quot;&lt;/span&gt;" style="rounded=0;whiteSpace=wrap;html=1;fontFamily=Fira Code;fillColor=#d5e8d4;strokeColor=#82b366;" parent="1" vertex="1">
                    <mxGeometry x="2810" y="7900" width="160" height="40" as="geometry"/>
                </mxCell>
                <mxCell id="756" style="edgeStyle=none;html=1;exitX=1;exitY=0.5;exitDx=0;exitDy=0;entryX=0;entryY=0.5;entryDx=0;entryDy=0;" parent="1" source="757" target="727" edge="1">
                    <mxGeometry relative="1" as="geometry"/>
                </mxCell>
                <mxCell id="757" value="&lt;font face=&quot;Fira Code&quot; style=&quot;font-size: 24px;&quot;&gt;nxt&lt;/font&gt;" style="rounded=0;whiteSpace=wrap;html=1;fillColor=#e1d5e7;strokeColor=#9673a6;" parent="1" vertex="1">
                    <mxGeometry x="2970" y="7900" width="40" height="40" as="geometry"/>
                </mxCell>
                <mxCell id="758" value="&lt;font style=&quot;font-size: 20px;&quot;&gt;&lt;font style=&quot;&quot;&gt;12, &quot;twelve&lt;/font&gt;&lt;span style=&quot;color: rgb(63, 63, 63); background-color: transparent;&quot;&gt;&quot;&lt;/span&gt;&lt;/font&gt;" style="rounded=0;whiteSpace=wrap;html=1;fontFamily=Fira Code;fillColor=#f8cecc;strokeColor=#b85450;" parent="1" vertex="1">
                    <mxGeometry x="2490" y="8060" width="160" height="40" as="geometry"/>
                </mxCell>
                <mxCell id="759" value="__node" style="rounded=0;whiteSpace=wrap;html=1;fillColor=#f8cecc;strokeColor=#b85450;fontSize=24;fontFamily=Fira Code;" parent="1" vertex="1">
                    <mxGeometry x="2490" y="8020" width="200" height="40" as="geometry"/>
                </mxCell>
                <mxCell id="760" style="edgeStyle=none;html=1;exitX=1;exitY=0.5;exitDx=0;exitDy=0;entryX=0;entryY=0.5;entryDx=0;entryDy=0;" parent="1" source="761" target="755" edge="1">
                    <mxGeometry relative="1" as="geometry"/>
                </mxCell>
                <mxCell id="761" value="&lt;font face=&quot;Fira Code&quot; style=&quot;font-size: 24px;&quot;&gt;nxt&lt;/font&gt;" style="rounded=0;whiteSpace=wrap;html=1;fillColor=#e1d5e7;strokeColor=#9673a6;" parent="1" vertex="1">
                    <mxGeometry x="2650" y="8060" width="40" height="40" as="geometry"/>
                </mxCell>
                <mxCell id="762" value="&lt;font style=&quot;font-size: 24px;&quot;&gt;4, &quot;four&lt;/font&gt;&lt;span style=&quot;color: rgb(63, 63, 63); font-size: 24px; background-color: transparent;&quot;&gt;&quot;&lt;/span&gt;" style="rounded=0;whiteSpace=wrap;html=1;fontFamily=Fira Code;fillColor=#d5e8d4;strokeColor=#82b366;" parent="1" vertex="1">
                    <mxGeometry x="3450" y="8690" width="160" height="40" as="geometry"/>
                </mxCell>
                <mxCell id="763" value="_M_before_begin" style="rounded=0;whiteSpace=wrap;html=1;fontSize=24;fontFamily=Fira Code;fillColor=#fff2cc;strokeColor=#d6b656;" parent="1" vertex="1">
                    <mxGeometry x="2090" y="9010" width="240" height="40" as="geometry"/>
                </mxCell>
                <mxCell id="764" value="&lt;font style=&quot;font-size: 24px;&quot;&gt;1, &quot;one&quot;&lt;/font&gt;" style="rounded=0;whiteSpace=wrap;html=1;fontFamily=Fira Code;fillColor=#d5e8d4;strokeColor=#82b366;" parent="1" vertex="1">
                    <mxGeometry x="3770" y="8570" width="160" height="40" as="geometry"/>
                </mxCell>
                <mxCell id="765" value="&lt;span style=&quot;color: rgb(0, 0, 0); font-size: 24px;&quot;&gt;idx: 11&lt;/span&gt;" style="rounded=0;whiteSpace=wrap;html=1;fontFamily=Fira Code;fillColor=#dae8fc;strokeColor=#6c8ebf;" parent="1" vertex="1">
                    <mxGeometry x="1930" y="8970" width="120" height="40" as="geometry"/>
                </mxCell>
                <mxCell id="766" value="&lt;span style=&quot;color: rgb(0, 0, 0); font-size: 24px;&quot;&gt;idx: 10&lt;/span&gt;" style="rounded=0;whiteSpace=wrap;html=1;fontFamily=Fira Code;fillColor=#dae8fc;strokeColor=#6c8ebf;" parent="1" vertex="1">
                    <mxGeometry x="1930" y="8930" width="120" height="40" as="geometry"/>
                </mxCell>
                <mxCell id="767" style="edgeStyle=none;html=1;exitX=1;exitY=0.5;exitDx=0;exitDy=0;entryX=0;entryY=0.5;entryDx=0;entryDy=0;" parent="1" source="768" target="763" edge="1">
                    <mxGeometry relative="1" as="geometry"/>
                </mxCell>
                <mxCell id="768" value="&lt;span style=&quot;color: rgb(0, 0, 0); font-size: 24px;&quot;&gt;idx: 12&lt;/span&gt;" style="rounded=0;whiteSpace=wrap;html=1;fontFamily=Fira Code;fillColor=#dae8fc;strokeColor=#6c8ebf;" parent="1" vertex="1">
                    <mxGeometry x="1930" y="9010" width="120" height="40" as="geometry"/>
                </mxCell>
                <mxCell id="769" style="edgeStyle=none;html=1;exitX=1;exitY=0.5;exitDx=0;exitDy=0;entryX=0;entryY=0.5;entryDx=0;entryDy=0;" parent="1" source="770" target="793" edge="1">
                    <mxGeometry relative="1" as="geometry"/>
                </mxCell>
                <mxCell id="770" value="&lt;span style=&quot;color: rgb(0, 0, 0); font-size: 24px;&quot;&gt;idx: 8&lt;/span&gt;" style="rounded=0;whiteSpace=wrap;html=1;fontFamily=Fira Code;fillColor=#dae8fc;strokeColor=#6c8ebf;" parent="1" vertex="1">
                    <mxGeometry x="1930" y="8850" width="120" height="40" as="geometry"/>
                </mxCell>
                <mxCell id="771" value="&lt;span style=&quot;color: rgb(0, 0, 0); font-size: 24px;&quot;&gt;idx: 7&lt;/span&gt;" style="rounded=0;whiteSpace=wrap;html=1;fontFamily=Fira Code;fillColor=#dae8fc;strokeColor=#6c8ebf;" parent="1" vertex="1">
                    <mxGeometry x="1930" y="8810" width="120" height="40" as="geometry"/>
                </mxCell>
                <mxCell id="772" value="&lt;span style=&quot;color: rgb(0, 0, 0); font-size: 24px;&quot;&gt;idx: 9&lt;/span&gt;" style="rounded=0;whiteSpace=wrap;html=1;fontFamily=Fira Code;fillColor=#dae8fc;strokeColor=#6c8ebf;" parent="1" vertex="1">
                    <mxGeometry x="1930" y="8890" width="120" height="40" as="geometry"/>
                </mxCell>
                <mxCell id="773" value="&lt;span style=&quot;color: rgb(0, 0, 0); font-size: 24px;&quot;&gt;idx: 5&lt;/span&gt;" style="rounded=0;whiteSpace=wrap;html=1;fontFamily=Fira Code;fillColor=#dae8fc;strokeColor=#6c8ebf;" parent="1" vertex="1">
                    <mxGeometry x="1930" y="8730" width="120" height="40" as="geometry"/>
                </mxCell>
                <mxCell id="774" style="edgeStyle=none;html=1;exitX=1;exitY=0.5;exitDx=0;exitDy=0;entryX=0;entryY=0.5;entryDx=0;entryDy=0;" parent="1" source="775" target="790" edge="1">
                    <mxGeometry relative="1" as="geometry"/>
                </mxCell>
                <mxCell id="775" value="&lt;span style=&quot;color: rgb(0, 0, 0); font-size: 24px;&quot;&gt;idx: 4&lt;/span&gt;" style="rounded=0;whiteSpace=wrap;html=1;fontFamily=Fira Code;fillColor=#dae8fc;strokeColor=#6c8ebf;" parent="1" vertex="1">
                    <mxGeometry x="1930" y="8690" width="120" height="40" as="geometry"/>
                </mxCell>
                <mxCell id="776" value="&lt;span style=&quot;color: rgb(0, 0, 0); font-size: 24px;&quot;&gt;idx: 6&lt;/span&gt;" style="rounded=0;whiteSpace=wrap;html=1;fontFamily=Fira Code;fillColor=#dae8fc;strokeColor=#6c8ebf;" parent="1" vertex="1">
                    <mxGeometry x="1930" y="8770" width="120" height="40" as="geometry"/>
                </mxCell>
                <mxCell id="777" value="&lt;span style=&quot;color: rgb(0, 0, 0); font-size: 24px;&quot;&gt;idx: 2&lt;/span&gt;" style="rounded=0;whiteSpace=wrap;html=1;fontFamily=Fira Code;fillColor=#dae8fc;strokeColor=#6c8ebf;" parent="1" vertex="1">
                    <mxGeometry x="1930" y="8610" width="120" height="40" as="geometry"/>
                </mxCell>
                <mxCell id="778" style="edgeStyle=none;html=1;entryX=0;entryY=0.5;entryDx=0;entryDy=0;" parent="1" source="779" target="762" edge="1">
                    <mxGeometry relative="1" as="geometry">
                        <mxPoint x="2180" y="8600" as="targetPoint"/>
                        <Array as="points">
                            <mxPoint x="3290" y="8590"/>
                        </Array>
                    </mxGeometry>
                </mxCell>
                <mxCell id="779" value="&lt;span style=&quot;color: rgb(0, 0, 0); font-size: 24px;&quot;&gt;idx: 1&lt;/span&gt;" style="rounded=0;whiteSpace=wrap;html=1;fontFamily=Fira Code;fillColor=#dae8fc;strokeColor=#6c8ebf;" parent="1" vertex="1">
                    <mxGeometry x="1930" y="8570" width="120" height="40" as="geometry"/>
                </mxCell>
                <mxCell id="780" value="&lt;span style=&quot;color: rgb(0, 0, 0); font-size: 24px;&quot;&gt;idx: 3&lt;/span&gt;" style="rounded=0;whiteSpace=wrap;html=1;fontFamily=Fira Code;fillColor=#dae8fc;strokeColor=#6c8ebf;" parent="1" vertex="1">
                    <mxGeometry x="1930" y="8650" width="120" height="40" as="geometry"/>
                </mxCell>
                <mxCell id="781" value="&lt;span style=&quot;color: rgb(0, 0, 0); font-size: 24px;&quot;&gt;idx: 0&lt;/span&gt;" style="rounded=0;whiteSpace=wrap;html=1;fontFamily=Fira Code;fillColor=#dae8fc;strokeColor=#6c8ebf;" parent="1" vertex="1">
                    <mxGeometry x="1930" y="8530" width="120" height="40" as="geometry"/>
                </mxCell>
                <mxCell id="782" value="_M_buckets" style="text;html=1;align=center;verticalAlign=middle;whiteSpace=wrap;rounded=0;fontSize=36;fontFamily=Fira Code;" parent="1" vertex="1">
                    <mxGeometry x="1740" y="8500" width="160" height="30" as="geometry"/>
                </mxCell>
                <mxCell id="783" value="&lt;font style=&quot;font-size: 24px;&quot;&gt;nullptr&lt;/font&gt;" style="rounded=0;whiteSpace=wrap;html=1;fontFamily=Fira Code;fillColor=#f5f5f5;fontColor=#333333;strokeColor=#666666;" parent="1" vertex="1">
                    <mxGeometry x="4010" y="8570" width="120" height="40" as="geometry"/>
                </mxCell>
                <mxCell id="784" style="edgeStyle=none;html=1;entryX=0;entryY=0.5;entryDx=0;entryDy=0;" parent="1" source="785" target="783" edge="1">
                    <mxGeometry relative="1" as="geometry"/>
                </mxCell>
                <mxCell id="785" value="&lt;font face=&quot;Fira Code&quot; style=&quot;font-size: 24px;&quot;&gt;nxt&lt;/font&gt;" style="rounded=0;whiteSpace=wrap;html=1;fillColor=#e1d5e7;strokeColor=#9673a6;" parent="1" vertex="1">
                    <mxGeometry x="3930" y="8570" width="40" height="40" as="geometry"/>
                </mxCell>
                <mxCell id="786" style="edgeStyle=none;html=1;exitX=1;exitY=0.5;exitDx=0;exitDy=0;entryX=0;entryY=0.5;entryDx=0;entryDy=0;" parent="1" source="787" target="764" edge="1">
                    <mxGeometry relative="1" as="geometry">
                        <mxPoint x="3685" y="8680" as="targetPoint"/>
                    </mxGeometry>
                </mxCell>
                <mxCell id="787" value="&lt;font face=&quot;Fira Code&quot; style=&quot;font-size: 24px;&quot;&gt;nxt&lt;/font&gt;" style="rounded=0;whiteSpace=wrap;html=1;fillColor=#e1d5e7;strokeColor=#9673a6;" parent="1" vertex="1">
                    <mxGeometry x="3610" y="8690" width="40" height="40" as="geometry"/>
                </mxCell>
                <mxCell id="788" style="edgeStyle=none;html=1;exitX=1;exitY=0.5;exitDx=0;exitDy=0;entryX=0;entryY=0.5;entryDx=0;entryDy=0;" parent="1" source="789" target="793" edge="1">
                    <mxGeometry relative="1" as="geometry"/>
                </mxCell>
                <mxCell id="789" value="&lt;font face=&quot;Fira Code&quot; style=&quot;font-size: 24px;&quot;&gt;nxt&lt;/font&gt;" style="rounded=0;whiteSpace=wrap;html=1;fillColor=#e1d5e7;strokeColor=#9673a6;" parent="1" vertex="1">
                    <mxGeometry x="2330" y="9010" width="40" height="40" as="geometry"/>
                </mxCell>
                <mxCell id="790" value="&lt;font style=&quot;font-size: 24px;&quot;&gt;8, &quot;eight&lt;/font&gt;&lt;span style=&quot;color: rgb(63, 63, 63); font-size: 24px; background-color: transparent;&quot;&gt;&quot;&lt;/span&gt;" style="rounded=0;whiteSpace=wrap;html=1;fontFamily=Fira Code;fillColor=#d5e8d4;strokeColor=#82b366;" parent="1" vertex="1">
                    <mxGeometry x="2810" y="8850" width="160" height="40" as="geometry"/>
                </mxCell>
                <mxCell id="791" style="edgeStyle=none;html=1;exitX=1;exitY=0.5;exitDx=0;exitDy=0;entryX=0;entryY=0.5;entryDx=0;entryDy=0;" parent="1" source="792" target="796" edge="1">
                    <mxGeometry relative="1" as="geometry"/>
                </mxCell>
                <mxCell id="792" value="&lt;font face=&quot;Fira Code&quot; style=&quot;font-size: 24px;&quot;&gt;nxt&lt;/font&gt;" style="rounded=0;whiteSpace=wrap;html=1;fillColor=#e1d5e7;strokeColor=#9673a6;" parent="1" vertex="1">
                    <mxGeometry x="2970" y="8850" width="40" height="40" as="geometry"/>
                </mxCell>
                <mxCell id="793" value="&lt;font style=&quot;font-size: 20px;&quot;&gt;&lt;font style=&quot;&quot;&gt;12, &quot;twelve&lt;/font&gt;&lt;span style=&quot;color: rgb(63, 63, 63); background-color: transparent;&quot;&gt;&quot;&lt;/span&gt;&lt;/font&gt;" style="rounded=0;whiteSpace=wrap;html=1;fontFamily=Fira Code;fillColor=#d5e8d4;strokeColor=#82b366;" parent="1" vertex="1">
                    <mxGeometry x="2490" y="9010" width="160" height="40" as="geometry"/>
                </mxCell>
                <mxCell id="794" style="edgeStyle=none;html=1;exitX=1;exitY=0.5;exitDx=0;exitDy=0;entryX=0;entryY=0.5;entryDx=0;entryDy=0;" parent="1" source="795" target="790" edge="1">
                    <mxGeometry relative="1" as="geometry"/>
                </mxCell>
                <mxCell id="795" value="&lt;font face=&quot;Fira Code&quot; style=&quot;font-size: 24px;&quot;&gt;nxt&lt;/font&gt;" style="rounded=0;whiteSpace=wrap;html=1;fillColor=#e1d5e7;strokeColor=#9673a6;" parent="1" vertex="1">
                    <mxGeometry x="2650" y="9010" width="40" height="40" as="geometry"/>
                </mxCell>
                <mxCell id="796" value="&lt;font style=&quot;font-size: 17px;&quot;&gt;&lt;font style=&quot;&quot;&gt;17, &quot;seventeen&lt;/font&gt;&lt;span style=&quot;color: rgb(63, 63, 63); background-color: transparent;&quot;&gt;&quot;&lt;/span&gt;&lt;/font&gt;" style="rounded=0;whiteSpace=wrap;html=1;fontFamily=Fira Code;fillColor=#f8cecc;strokeColor=#b85450;fontSize=12;" parent="1" vertex="1">
                    <mxGeometry x="3130" y="8690" width="160" height="40" as="geometry"/>
                </mxCell>
                <mxCell id="797" value="__node" style="rounded=0;whiteSpace=wrap;html=1;fillColor=#f8cecc;strokeColor=#b85450;fontSize=24;fontFamily=Fira Code;" parent="1" vertex="1">
                    <mxGeometry x="3130" y="8650" width="200" height="40" as="geometry"/>
                </mxCell>
                <mxCell id="798" value="&lt;font face=&quot;Fira Code&quot; style=&quot;font-size: 24px;&quot;&gt;nxt&lt;/font&gt;" style="rounded=0;whiteSpace=wrap;html=1;fillColor=#e1d5e7;strokeColor=#9673a6;" parent="1" vertex="1">
                    <mxGeometry x="3290" y="8690" width="40" height="40" as="geometry"/>
                </mxCell>
                <mxCell id="799" value="" style="endArrow=classic;html=1;rounded=0;exitX=1;exitY=0.5;exitDx=0;exitDy=0;entryX=0;entryY=0.5;entryDx=0;entryDy=0;" parent="1" source="798" target="762" edge="1">
                    <mxGeometry width="50" height="50" relative="1" as="geometry">
                        <mxPoint x="3180" y="8550" as="sourcePoint"/>
                        <mxPoint x="3230" y="8500" as="targetPoint"/>
                    </mxGeometry>
                </mxCell>
            </root>
        </mxGraphModel>
    </diagram>
</mxfile>